<?xml version="1.0" encoding="UTF-8"?>
<!DOCTYPE svg PUBLIC "-//W3C//DTD SVG 1.1//EN" "http://www.w3.org/Graphics/SVG/1.1/DTD/svg11.dtd">
<!-- Creator: CorelDRAW 2020 (64-Bit) -->
<svg xmlns="http://www.w3.org/2000/svg" xml:space="preserve" width="114.81mm" height="114.811mm" version="1.1" style="shape-rendering:geometricPrecision; text-rendering:geometricPrecision; image-rendering:optimizeQuality; fill-rule:evenodd; clip-rule:evenodd"
viewBox="0 0 1203.12 1203.12"
 xmlns:xlink="http://www.w3.org/1999/xlink"
 xmlns:xodm="http://www.corel.com/coreldraw/odm/2003">
 <defs>
  <style type="text/css">
   <![CDATA[
    .fil0 {fill:#EBAA3E}
   ]]>
  </style>
 </defs>
 <g id="Layer_x0020_1">
  <metadata id="CorelCorpID_0Corel-Layer"/>
  <path class="fil0" d="M567.09 566.95l-13.69 8.18c-83.8,31.93 -596.76,249.01 -21.48,582.65 -2.17,-100.98 -137.25,-170.29 -63.94,-268.18 25.59,-24.45 120.19,-126.8 132.27,-214.1 0.2,-1.45 0.54,-3.21 0.99,-5.24 0.45,2.03 0.79,3.79 0.99,5.24 12.09,87.31 106.69,189.65 132.27,214.1 73.32,97.89 -61.77,167.21 -63.94,268.18 550.55,-319.3 104.5,-531.8 -8.34,-577.47l-22.88 -13.66c100.91,-41.09 195.85,-11.21 195.85,-11.21 218.74,55.15 308.91,-90.12 308.91,-90.12 -89.75,19.08 -179.92,-42 -270.73,-64.24 -152.88,-37.88 -236.52,83.26 -270.68,151.86 -32.65,-67.6 -116.59,-195.23 -272.95,-156.49 -90.81,22.23 -180.97,83.31 -270.73,64.24 0,0 90.18,145.27 308.91,90.11 0,0 97.01,-30.51 199.12,12.58 1.69,0.71 0.79,2.41 0.04,3.57z"/>
  <path class="fil0" d="M601.56 0c332.23,0 601.56,269.33 601.56,601.56 0,332.23 -269.33,601.56 -601.56,601.56 -332.23,0 -601.56,-269.33 -601.56,-601.56 0,-332.23 269.33,-601.56 601.56,-601.56zm0 41.7c309.2,0 559.86,250.66 559.86,559.86 0,309.2 -250.66,559.86 -559.86,559.86 -309.2,0 -559.86,-250.66 -559.86,-559.86 0,-309.2 250.66,-559.86 559.86,-559.86z"/>
  <path class="fil0" d="M600.47 205.54c32.56,0 58.96,26.4 58.96,58.95 0,32.56 -26.4,58.95 -58.96,58.95 -32.56,0 -58.95,-26.4 -58.95,-58.95 0,-32.56 26.4,-58.95 58.95,-58.95z"/>
  <path class="fil0" d="M600.47 897.45c32.56,0 58.96,26.4 58.96,58.96 0,32.56 -26.4,58.95 -58.96,58.95 -32.56,0 -58.95,-26.4 -58.95,-58.95 0,-32.56 26.4,-58.96 58.95,-58.96z"/>
  <path class="fil0" d="M524.74 395.09c0,0 -152.5,-46.9 -93.49,-179.42 0,0 27.21,-80.27 169.15,-174.8l0.07 56.37c0,0 114.71,89.77 119.65,145.59 0,0 22,62.77 -43.92,152.25 0,0 152.5,-46.9 93.49,-179.42 0,0 -27.21,-80.27 -169.15,-174.8l-0.07 56.37c0,0 -114.71,89.77 -119.65,145.59 0,0 -22,62.77 43.92,152.25z"/>
 </g>
</svg>
