<?xml version="1.0" encoding="UTF-8"?>
<!DOCTYPE svg PUBLIC "-//W3C//DTD SVG 1.1//EN" "http://www.w3.org/Graphics/SVG/1.1/DTD/svg11.dtd">
<!-- Creator: CorelDRAW 2020 (64-Bit) -->
<svg xmlns="http://www.w3.org/2000/svg" xml:space="preserve" width="310.634mm" height="72.8538mm" version="1.1" style="shape-rendering:geometricPrecision; text-rendering:geometricPrecision; image-rendering:optimizeQuality; fill-rule:evenodd; clip-rule:evenodd"
viewBox="0 0 35419.28 8306.96"
 xmlns:xlink="http://www.w3.org/1999/xlink"
 xmlns:xodm="http://www.corel.com/coreldraw/odm/2003">
 <defs>
  <style type="text/css">
   <![CDATA[
    .fil0 {fill:#EBAA3E}
    .fil1 {fill:#EBAA3E;fill-rule:nonzero}
   ]]>
  </style>
 </defs>
 <g id="Layer_x0020_1">
  <metadata id="CorelCorpID_0Corel-Layer"/>
  <g id="_1850085922048">
   <path class="fil0" d="M3915.46 3914.53l-94.54 56.46c-578.63,220.44 -4120.34,1719.26 -148.27,4022.92 -15.02,-697.19 -947.66,-1175.76 -441.51,-1851.67 176.67,-168.82 829.87,-875.46 913.27,-1478.28 1.39,-10 3.73,-22.15 6.83,-36.17 3.1,14.01 5.44,26.17 6.81,36.17 83.44,602.81 736.64,1309.46 913.27,1478.28 506.21,675.9 -426.47,1154.48 -441.47,1851.67 3801.26,-2204.59 721.5,-3671.78 -57.56,-3987.16l-157.94 -94.34c696.75,-283.71 1352.28,-77.4 1352.28,-77.4 1510.28,380.79 2132.88,-622.2 2132.88,-622.2 -619.71,131.72 -1242.29,-290 -1869.28,-443.55 -1055.54,-261.52 -1633.04,574.9 -1868.93,1048.55 -225.4,-466.73 -804.96,-1348 -1884.6,-1080.48 -627.01,153.51 -1249.55,575.22 -1869.28,443.54 0,0 622.62,1003 2132.88,622.17 0,0 669.81,-210.67 1374.85,86.84 11.64,4.93 5.47,16.65 0.31,24.64z"/>
   <path class="fil0" d="M4153.48 0c2293.9,0 4153.48,1859.58 4153.48,4153.48 0,2293.9 -1859.58,4153.48 -4153.48,4153.48 -2293.9,0 -4153.48,-1859.58 -4153.48,-4153.48 0,-2293.9 1859.58,-4153.48 4153.48,-4153.48zm0 287.95c2134.88,0 3865.53,1730.65 3865.53,3865.53 0,2134.88 -1730.65,3865.54 -3865.53,3865.54 -2134.89,0 -3865.54,-1730.67 -3865.54,-3865.54 0,-2134.88 1730.65,-3865.53 3865.54,-3865.53z"/>
   <path class="fil0" d="M4145.97 1419.16c224.84,0 407.08,182.24 407.08,407.05 0,224.82 -182.24,407.06 -407.08,407.06 -224.81,0 -407.05,-182.24 -407.05,-407.06 0,-224.81 182.24,-407.05 407.05,-407.05z"/>
   <path class="fil0" d="M4145.97 6196.44c224.84,0 407.08,182.24 407.08,407.07 0,224.82 -182.24,407.06 -407.08,407.06 -224.81,0 -407.05,-182.24 -407.05,-407.06 0,-224.83 182.24,-407.07 407.05,-407.07z"/>
   <path class="fil0" d="M3623.04 2727.92c0,0 -1052.96,-323.81 -645.48,-1238.78 0,0 187.86,-554.18 1167.91,-1206.89l0.51 389.24c0,0 791.98,619.85 826.15,1005.26 0,0 151.88,433.39 -303.22,1051.18 0,0 1052.97,-323.81 645.49,-1238.78 0,0 -187.87,-554.18 -1167.92,-1206.89l-0.5 389.24c0,0 -791.99,619.85 -826.16,1005.26 0,0 -151.88,433.39 303.22,1051.18z"/>
  </g>
  <g id="_1850085924304">
   <path class="fil1" d="M11152.76 5545.11l-146.11 0c-85.19,0 -180.78,4.15 -286.06,12.46 -66.48,4.86 -112.2,7.63 -137.8,7.63 -90.73,0 -164.85,-20.79 -221.63,-63.04 -56.81,-41.54 -85.21,-96.26 -85.21,-164.12 0,-47.1 12.47,-83.8 37.41,-110.12 24.94,-27.01 66.5,-47.8 123.28,-64.42 54.02,-13.14 90.03,-35.3 109.43,-65.79 18.7,-30.48 33.94,-89.34 44.33,-177.28 11.08,-101.81 20.75,-299.22 29.76,-592.86 8.31,-293.64 13.17,-585.23 13.17,-874.72 0,-113.59 -9.01,-189.07 -26.33,-227.17 -17.99,-37.39 -58.86,-67.87 -123.95,-90.73 -93.52,-35.32 -139.91,-95.57 -139.91,-180.75 0,-66.51 31.87,-118.44 96.27,-155.15 64.4,-37.41 153.76,-56.09 268.73,-56.09 38.07,0 82.42,0.7 134.34,2.08 113.59,4.16 196.02,6.24 247.26,6.24 193.22,0 412.08,-6.24 655.17,-18.7 51.26,-2.09 115.66,-3.47 193.22,-3.47 309.58,0 554.07,34.61 734.16,105.27 268.01,105.28 469.54,282.56 604.6,531.21 120.51,219.55 180.76,480.66 180.76,783.31 0,153.04 -22.14,306.12 -67.17,459.88 -44.33,153.74 -104.58,286.71 -180.76,398.91 -156.53,227.18 -373.31,386.46 -648.94,478.59 -162.08,54.01 -335.21,81.02 -519.45,81.02l-245.86 -7.62 -210.54 -6.24c-164.15,-5.54 -308.21,-8.31 -432.19,-8.31zm425.96 -2199.63l0 1570.77c0,85.19 17.98,145.42 54.7,181.44 36.72,36.03 97.65,54.04 182.83,54.04 394.78,0 592.16,-300.6 592.16,-901.05 0,-331.74 -45.72,-588.7 -137.83,-770.84 -101.12,-201.53 -273.56,-302.65 -515.27,-302.65 -65.1,0 -110.82,13.16 -137.15,38.77 -26.32,25.63 -39.45,68.58 -39.45,129.52zm2925.44 -612.92c154.45,0 299.9,13.85 436.32,40.84 184.25,36.72 275.66,114.27 275.66,233.4 0,39.49 -9.01,68.57 -27.01,87.95 -18.02,20.09 -64.4,48.49 -139.22,86.6 -62.32,31.14 -103.19,99.03 -122.59,204.99 -19.37,105.28 -29.08,310.97 -29.08,616.39 0,516.66 12.47,836.62 38.08,959.91 9.69,39.47 24.24,69.27 43.64,90.72 19.4,20.79 54.01,43.65 102.51,67.89 89.34,40.18 133.67,99.04 133.67,176.6 0,108.05 -82.42,182.16 -247.26,223.02 -178.67,42.94 -396.83,65.11 -655.17,65.11 -441.18,0 -661.42,-84.51 -661.42,-252.1 0,-60.96 42.95,-117.74 129.52,-170.38 66.49,-40.16 105.28,-96.27 117.74,-166.21 25.63,-154.45 38.77,-481.35 38.77,-982.07 0,-346.29 -17.98,-567.91 -52.62,-665.56 -19.4,-55.4 -64.4,-105.28 -136.44,-150.3 -55.39,-36 -92.8,-66.48 -111.5,-91.41 -18.71,-24.23 -28.4,-55.4 -28.4,-92.8 0,-58.16 28.4,-104.58 84.51,-139.22 56.09,-34.61 155.12,-65.08 297.11,-92.11 168.97,-33.92 340.05,-51.23 513.19,-51.23zm1270.18 42.92l1042.34 0c211.24,0 365,-4.15 461.96,-13.16 96.95,-8.98 191.15,-26.99 283.25,-54.01 28.4,-7.62 50.57,-11.78 66.48,-11.78 70.66,0 132.98,37.41 187.01,113.59 89.35,123.28 133.68,271.5 133.68,446.02 0,87.95 -18.71,157.2 -55.41,208.47 -37.41,50.57 -88.65,75.48 -153.08,75.48 -45,0 -79.64,-9.01 -104.58,-27 -24.91,-18 -58.86,-59.58 -100.42,-122.59 -59.55,-90.73 -135.04,-151.68 -226.47,-182.16 -91.42,-30.46 -241,-45.7 -449.49,-45.7 -155.81,0 -250.01,28.4 -283.95,83.8 -18,29.79 -28.4,69.26 -31.86,119.83 -2.77,49.85 -4.86,177.28 -4.86,382.98 0,81.05 13.85,131.59 40.88,150.99 27.01,20.09 97.65,29.79 212.62,29.79 56.81,0 98.34,-11.78 123.98,-35.34 25.63,-24.24 42.26,-66.48 48.49,-126.75 9.67,-78.94 19.37,-132.28 29.76,-161.35 9.7,-29.1 28.4,-54.73 55.41,-76.2 28.38,-24.22 61.63,-36.69 99.74,-36.69 55.39,0 102.49,26.33 141.98,78.95 28.38,39.49 52.62,108.73 72.02,208.47 19.4,99.03 29.79,202.91 29.79,310.96 0,214.01 -33.25,389.24 -99.74,525.65 -36.72,74.82 -92.13,111.51 -166.22,111.51 -46.42,0 -78.26,-11.76 -95.57,-35.31 -17.32,-23.55 -31.17,-72.73 -40.88,-146.83 -20.09,-153.05 -109.43,-229.25 -267.31,-229.25 -60.97,0 -102.51,18.71 -124.67,57.5 -22.86,38.77 -33.94,110.12 -33.94,214.01 0,63.7 4.85,146.12 13.16,246.54 9.01,101.14 18.02,167.61 27.71,200.17 10.4,40.16 44.32,68.56 100.43,83.8 56.09,15.94 149.6,23.56 281.17,23.56 202.93,0 355.31,-26.33 458.5,-78.28 102.49,-51.93 186.3,-146.12 251.41,-283.25 38.08,-78.25 72.03,-130.9 102.51,-157.92 30.48,-26.99 69.94,-40.84 118.44,-40.84 56.77,0 103.89,24.94 141.29,74.09 37.39,49.88 55.4,111.51 55.4,185.61 0,81.05 -20.79,182.86 -62.32,304.76 -42.26,121.89 -93.52,229.94 -154.45,324.82 -31.17,45.7 -56.78,76.18 -76.87,92.11 -20.77,15.24 -46.41,22.86 -77.58,23.56 -25.61,-0.7 -62.32,-4.16 -111.5,-12.47 -86.58,-15.93 -202.23,-26.33 -346.97,-30.48l-1720.37 0c-69.26,0 -122.6,-15.24 -160.67,-45.72 -37.41,-30.46 -56.81,-73.41 -56.81,-128.8 0,-39.49 8.31,-67.89 24.94,-85.21 15.93,-17.29 53.34,-40.15 111.5,-67.17 40.18,-17.31 70.64,-38.79 90.03,-64.4 19.4,-26.32 34.64,-63.73 45.72,-113.58 44.31,-204.33 67.17,-479.97 67.17,-826.26 0,-522.19 -32.53,-851.17 -97.65,-988.3 -13.16,-27.02 -28.4,-45.7 -44.31,-56.78 -16.62,-10.39 -50.57,-23.56 -101.83,-38.09 -76.87,-23.56 -115.66,-74.8 -115.66,-154.45 0,-43.62 13.17,-81.72 38.79,-115.64 25.63,-33.94 59.58,-56.11 101.12,-67.19 52.66,-11.78 155.15,-18.02 306.81,-18.02zm923.22 -964.06c44.33,0 117.04,28.4 216.78,84.49 100.42,56.11 202.91,125.36 308.19,207.77 94.88,74.81 160,133.67 195.99,176.62 36.02,43.61 54.04,84.49 54.04,123.98 0,40.15 -15.24,76.17 -45.03,107.34 -29.77,31.15 -63.72,46.4 -103.2,46.4 -52.62,0 -164.12,-40.16 -334.51,-121.21 -134.34,-63.7 -232.71,-95.57 -296.42,-95.57 -38.09,0 -70.63,4.85 -97.65,15.24 -27.01,10.39 -89.34,40.87 -186.29,92.11 -143.37,76.2 -246.57,113.58 -308.91,113.58 -45.7,0 -83.11,-15.23 -112.2,-45.69 -29.08,-30.49 -43.62,-69.98 -43.62,-118.44 0,-44.33 22.17,-92.8 66.49,-144.76 45.02,-52.62 122.59,-120.51 233.39,-204.31 209.86,-157.92 360.85,-237.55 452.95,-237.55zm2644.26 1061.71l1010.48 884.43c94.19,82.44 162.74,123.98 204.31,123.98 70.64,0 105.96,-75.48 105.96,-225.79 0,-170.36 -10.39,-286.71 -30.48,-348.36 -20.08,-62.32 -63.01,-109.43 -128.13,-140.58 -52.62,-25.63 -90.03,-52.66 -111.5,-81.74 -21.46,-29.08 -32.54,-66.48 -32.54,-112.87 0,-113.58 78.25,-186.32 233.4,-218.85 63.7,-13.85 174.52,-20.77 333.13,-20.77 204.32,0 345.58,12.46 423.86,36.68 124.67,38.11 186.3,109.43 186.3,215.4 0,87.97 -50.57,153.76 -151.68,198.79 -40.84,17.3 -68.56,33.23 -83.1,46.38 -15.24,13.85 -27.72,33.94 -38.8,60.97 -36.68,89.34 -55.39,258.31 -56.77,507.65l0 661.41c0,101.12 0.68,239.63 2.08,415.54 1.38,238.25 -13.16,409.99 -42.95,515.27 -36,131.59 -102.49,196.71 -198.76,197.41 -41.54,-0.7 -78.25,-9.01 -108.73,-27.02 -29.79,-17.32 -80.33,-58.19 -150.97,-121.21l-1203 -1077.64c-83.83,-75.48 -153.77,-113.59 -209.19,-113.59 -82.42,0 -123.95,114.27 -123.95,342.83 0,187.68 11.08,316.5 31.85,385.75 20.79,68.58 63.73,119.83 128.82,151.68 90.73,45 135.76,103.2 135.76,174.52 0,188.38 -202.23,282.58 -606.71,282.58 -182.14,0 -324.13,-24.24 -425.25,-72.04 -100.42,-48.47 -150.97,-116.36 -150.97,-204.31 0,-45.7 9.7,-80.34 28.38,-103.19 18.7,-22.86 61.65,-54.01 128.13,-93.5 63.74,-38.09 101.81,-104.58 115.66,-200.84 22.86,-174.55 34.64,-425.25 34.64,-752.83 0,-349.07 -20.79,-603.25 -60.96,-763.22 -15.22,-58.19 -33.92,-101.12 -56.78,-129.52 -23.56,-28.4 -60.93,-55.41 -113.59,-81.02 -60.93,-29.78 -103.19,-58.88 -127.43,-87.28 -23.56,-28.38 -35.31,-63.01 -35.31,-103.89 0,-129.5 111.49,-211.24 335.19,-245.15 75.51,-11.08 207.79,-16.62 397.55,-16.62 108.05,0 187,9 236.17,25.6 49.16,16.62 108.04,55.43 175.9,114.97zm3980.2 1716.23l0 -1067.26c0,-137.83 -9,-225.78 -28.39,-262.49 -18.69,-37.41 -69.95,-67.87 -153.75,-90.73 -121.89,-34.64 -182.85,-95.57 -182.85,-182.16 0,-60.93 25.62,-108.05 76.89,-140.58 51.94,-31.87 126.05,-48.49 223.7,-48.49 32.54,0 112.89,2.09 241.02,6.24l121.88 0c224.4,-1.38 355.99,-2.77 394.78,-4.85 38.77,-2.08 175.91,-13.85 412.77,-36.02 78.25,-7.61 150.3,-11.76 215.39,-11.76 221.63,0 419.01,45 592.16,135.72 301.97,157.23 452.26,405.87 452.26,746.6 0,276.36 -105.29,497.29 -316.53,663.5 -198.76,155.83 -439.1,233.4 -722.35,233.4 -71.32,0 -159.3,-4.86 -263.19,-13.85 -55.39,-4.16 -90.03,-6.24 -103.89,-6.24 -38.77,0 -58.86,22.17 -58.86,67.19l0 11.78 14.55 333.13c2.77,64.4 14.55,112.89 35.3,144.73 20.79,31.87 63.74,64.42 128.83,98.34 87.95,47.1 131.59,99.06 131.59,154.45 0,85.19 -64.4,150.99 -194.61,196.69 -129.52,45.72 -313.73,69.27 -551.98,69.27 -500.06,0 -750.76,-85.89 -750.76,-258.34 0,-40.17 11.08,-71.32 32.54,-92.79 22.17,-21.48 72.73,-52.66 152.37,-93.5 48.49,-25.63 76.87,-61.65 85.19,-107.35 8.31,-46.41 13.85,-194.64 15.93,-444.63zm915.6 -1324.91l0 689.81c0,52.62 11.08,84.49 34.62,95.57 38.79,18.7 87.97,28.38 147.52,28.38 89.34,0 164.84,-24.91 225.79,-75.48 87.95,-71.33 131.59,-191.84 131.59,-360.85 0,-175.9 -51.26,-303.35 -154.45,-381.6 -64.4,-49.87 -143.35,-74.79 -234.79,-74.79 -100.42,0 -150.27,26.3 -150.27,78.95zm2460.72 -533.98c421.78,0 633.01,87.26 633.01,261.78 0,47.8 -11.06,85.89 -32.53,115.66 -21.48,29.78 -63.04,63.03 -123.98,99.72 -52.64,32.56 -85.87,74.81 -100.42,128.13 -13.85,52.66 -20.79,159.31 -20.79,319.97 0,94.89 17.32,153.08 52.64,174.55 20.07,13.85 51.24,22.14 92.12,24.91 41.54,2.09 138.49,3.47 291.57,3.47 139.21,0 225.78,-6.92 259.72,-22.14 33.23,-14.55 50.55,-51.96 50.55,-111.5 0,-178.71 -8.31,-302.67 -24.24,-373.31 -16.6,-70.64 -48.47,-118.44 -95.57,-144.07 -59.55,-33.92 -99.04,-62.32 -117.74,-86.57 -18.69,-23.56 -28.38,-54.7 -28.38,-94.18 0,-55.4 20.75,-105.97 63.01,-151 41.57,-45 96.27,-76.17 164.16,-92.11 140.58,-33.92 317.2,-51.23 529.82,-51.23 248.61,0 432.17,22.85 550.6,68.55 118.44,45.03 177.98,115.66 177.98,211.93 0,81.02 -42.26,141.98 -126.05,182.14 -52.62,24.94 -87.26,47.8 -103.89,69.96 -15.93,22.86 -29.09,64.4 -38.09,125.36 -5.52,33.23 -12.45,183.53 -20.07,450.17 -8.31,266.63 -12.47,477.87 -12.47,635.09 0,274.94 10.4,448.79 30.49,523.58 10.36,40.18 22.83,67.87 36.69,81.04 13.16,13.85 56.11,40.87 127.43,81.05 51.26,28.38 77.56,72.02 77.56,130.18 0,102.51 -61.63,177.32 -184.21,224.4 -121.89,46.42 -320.67,69.96 -594.93,69.96 -241,0 -419,-24.24 -533.97,-71.34 -103.89,-42.93 -156.52,-110.12 -156.52,-200.85 0,-76.86 40.16,-137.13 119.83,-180.75 39.46,-21.48 65.78,-42.95 80.33,-65.12 13.85,-21.45 28.4,-60.93 41.56,-119.13 24.23,-113.58 36.69,-253.46 36.69,-418.3 0,-85.19 -12.46,-137.81 -37.39,-157.9 -25.62,-20.79 -90.74,-30.48 -196.02,-30.48 -242.38,0 -396.14,13.16 -462.62,40.17 -27.01,11.08 -44.33,42.93 -50.57,95.57 -8.31,65.1 -12.46,144.74 -12.46,239.64 0,153.74 21.47,264.55 65.11,332.43 14.53,21.46 49.86,49.17 105.28,83.11 56.78,32.53 85.19,85.87 85.19,160.67 0,94.18 -65.81,166.92 -196.69,216.77 -130.91,49.87 -318.59,75.51 -561.69,75.51 -222.32,0 -403.09,-23.55 -544.37,-69.27 -60.27,-20.09 -108.05,-49.16 -142.68,-86.57 -34.64,-36.72 -51.96,-77.56 -51.96,-122.59 0,-44.32 11.08,-78.95 32.56,-103.2 21.47,-24.24 69.27,-55.39 141.98,-93.49 38.11,-18.71 64.4,-42.95 80.33,-72.71 15.24,-29.79 27.02,-80.36 35.34,-150.3 20.09,-158.61 30.48,-365.68 30.48,-621.23 0,-47.11 -0.7,-103.2 -2.08,-168.31 -5.54,-324.83 -8.31,-509.74 -8.31,-556.14 1.38,-116.36 -8.31,-192.53 -29.1,-229.94 -20.77,-37.39 -76.18,-78.25 -165.54,-122.56 -59.55,-28.4 -89.34,-71.36 -89.34,-128.14 0,-136.44 132.98,-231.32 397.55,-283.97 154.43,-31.14 313.05,-47.08 475.1,-47.08zm5433.98 1059.64l0 495.2c0,298.5 -22.17,510.42 -67.17,635.09 -95.57,262.47 -306.83,452.25 -633.04,569.99 -197.37,72.71 -420.39,109.4 -669,109.4 -434.24,0 -781.92,-103.19 -1043.03,-310.27 -127.44,-101.81 -215.39,-219.55 -263.86,-353.2 -48.49,-133.67 -73.43,-327.59 -73.43,-580.39 0,-98.34 3.47,-261.11 10.39,-486.9 4.16,-159.28 6.24,-265.24 6.24,-316.5 0,-112.2 -8.31,-189.76 -25.63,-233.4 -16.62,-42.92 -53.32,-83.8 -110.12,-121.89 -89.34,-58.16 -134.34,-122.56 -134.34,-194.61 0,-52.62 22.84,-99.03 67.87,-139.88 45.7,-40.87 105.28,-68.57 180.06,-83.12 148.22,-29.77 324.12,-45 527.05,-45 223.7,0 408.63,17.32 556.14,51.23 144.75,31.87 217.46,105.97 217.46,220.94 0,56.79 -21.45,101.8 -63.01,135.74 -9.7,8.31 -50.57,29.1 -121.9,63.02 -43.64,18.7 -72.71,53.34 -87.95,103.19 -15.94,50.57 -23.56,132.98 -23.56,247.95 0,117.74 -5.54,371.92 -16.62,762.52 -6.24,232.71 56.11,410 189.07,531.89 108.06,100.42 247.25,150.3 417.64,150.3 108.73,0 206.38,-20.09 294.34,-60.25 87.95,-39.49 155.14,-94.21 200.84,-162.77 36.72,-53.34 61.65,-112.2 75.48,-176.6 13.17,-65.12 20.09,-153.76 20.09,-265.96l0 -446.72c-6.92,-342.14 -16.62,-542.28 -29.76,-601.14 -12.47,-58.89 -56.11,-105.28 -130.91,-139.22 -69.96,-31.17 -117.74,-59.58 -144.06,-85.19 -25.63,-25.62 -38.11,-57.49 -38.11,-95.56 0,-81.06 48.49,-139.92 144.76,-177.32 96.95,-37.39 252.1,-56.09 466.11,-56.09 209.15,0 361.53,18.7 455.02,54.7 94.19,36.72 141.27,94.88 141.27,174.55 0,39.46 -8.31,68.56 -24.22,87.26 -16.62,19.4 -58.88,48.47 -128.14,87.26 -71.34,40.87 -112.2,84.49 -122.59,130.9 -10.39,47.08 -16.62,220.25 -19.4,520.82zm-1089.43 -1921.89c123.28,0 232.71,18.68 328.98,55.39 47.1,17.32 85.87,42.26 115.66,74.79 29.09,32.56 43.64,65.12 42.26,97.67 -2.77,60.25 -60.27,134.34 -172.47,220.94 -204.31,156.51 -430.09,235.46 -677.34,235.46 -139.89,0 -209.16,-50.55 -209.16,-150.28 0,-35.32 6.93,-61.65 20.79,-80.35 14.55,-17.99 55.41,-53.32 123.28,-106.66 60.93,-42.93 97.65,-72.02 111.5,-85.87 13.16,-14.55 20.09,-31.85 20.09,-51.94 0,-10.39 -8.31,-30.48 -24.24,-58.88 -5.55,-9.01 -8.32,-19.4 -8.32,-30.46 0,-35.34 30.49,-63.73 91.42,-85.21 60.96,-21.45 139.91,-33.23 237.55,-34.61zm3068.13 850.47c197.37,0 387.85,42.93 572.07,129.52 86.57,40.85 146.83,60.94 180.75,60.94 24.25,0 63.04,-5.54 117.04,-18.02 18.02,-4.16 37.41,-6.24 58.88,-6.24 70.64,0 132.27,32.56 184.92,97.65 130.2,156.54 194.6,351.84 194.6,584.55 0,163.46 -56.09,283.25 -168.29,358.76 -60.96,40.85 -128.82,60.93 -205,60.93 -68.57,0 -124.66,-14.54 -168.31,-44.31 -42.94,-29.78 -85.17,-83.12 -126.05,-158.61 -58.16,-106.66 -105.27,-183.53 -141.96,-230.63 -36.02,-46.4 -81.05,-88.64 -133.68,-126.75 -130.9,-91.41 -268.73,-137.81 -412.08,-137.81 -139.21,0 -250.03,50.55 -331.74,150.97 -81.74,101.12 -122.6,236.17 -122.6,405.18 0,232.69 58.86,445.3 176.6,639.24 159.31,258.32 387.86,387.14 685.66,387.14 109.43,0 218.16,-18 325.51,-54.7 108.04,-36.72 191.15,-83.83 250.72,-141.99 51.23,-48.48 93.49,-72.71 126.03,-72.71 47.1,0 87.97,21.45 121.89,65.79 33.25,43.64 50.57,96.95 50.57,159.3 0,78.25 -23.56,166.21 -71.34,263.86 -47.09,96.95 -103.89,173.85 -170.37,229.24 -28.4,22.86 -87.26,42.95 -176.6,60.96 -51.26,8.98 -119.81,33.92 -205,74.8 -200.17,96.26 -407.94,144.03 -624.72,144.03 -225.79,0 -450.87,-50.55 -675.96,-152.35 -260.39,-117.74 -466.78,-297.8 -618.47,-541.59 -148.91,-236.87 -223,-484.13 -223,-742.45 0,-300.59 92.8,-574.15 279.81,-822.1 162.05,-214.69 373.98,-378.82 635.09,-493.1 198.76,-86.59 403.76,-129.52 615,-129.52z"/>
   <path class="fil0" d="M16556.12 5993.85c138.53,0 250.84,112.3 250.84,250.86 0,138.53 -112.31,250.84 -250.84,250.84 -138.53,0 -250.86,-112.31 -250.86,-250.84 0,-138.56 112.33,-250.86 250.86,-250.86z"/>
  </g>
 </g>
</svg>
